<?xml version="1.0" encoding="UTF-8" standalone="no"?>
<!DOCTYPE svg PUBLIC "-//W3C//DTD SVG 1.1//EN" "http://www.w3.org/Graphics/SVG/1.1/DTD/svg11.dtd">
<svg width="100%" height="100%" viewBox="0 0 500 500" version="1.1" xmlns="http://www.w3.org/2000/svg" xmlns:xlink="http://www.w3.org/1999/xlink" xml:space="preserve" xmlns:serif="http://www.serif.com/" style="fill-rule:evenodd;clip-rule:evenodd;stroke-linecap:round;stroke-linejoin:round;stroke-miterlimit:1.5;">
    <g transform="matrix(1,0,0,1,-4956,0)">
        <g id="Mesa-de-trabajo8" serif:id="Mesa de trabajo8" transform="matrix(1,0,0,1,-0.333333,0)">
            <rect x="4956.33" y="0" width="500" height="500" style="fill:none;"/>
            <g transform="matrix(1.21154,0,0,1.21154,-1125.57,-38.7317)">
                <g id="Ticket" transform="matrix(-1,0,0,-1,6144.11,522.136)">
                    <path d="M1060.77,124.4C1060.77,105.414 1045.59,90 1026.6,90L897.4,90C877.849,104.121 862.243,118.679 862.774,124.4L862.774,477.6C926.263,477.005 1032.77,477.622 1060.77,477.636L1060.77,124.4Z" style="fill:rgb(251,233,116);"/>
                    <clipPath id="_clip1">
                        <path d="M1060.77,124.4C1060.77,105.414 1045.59,90 1026.6,90L897.4,90C877.849,104.121 862.243,118.679 862.774,124.4L862.774,477.6C926.263,477.005 1032.77,477.622 1060.77,477.636L1060.77,124.4Z"/>
                    </clipPath>
                    <g clip-path="url(#_clip1)">
                        <g transform="matrix(1.94444,0,0,-7.5,682.738,1780.14)">
                            <path d="M176,181C176,180.448 174.272,180 172.143,180L125.857,180C123.728,180 122,180.448 122,181C122,181.552 123.728,182 125.857,182L172.143,182C174.272,182 176,181.552 176,181Z"/>
                        </g>
                        <g transform="matrix(2.3405,0,0,-7.5,613.033,1749.5)">
                            <path d="M176,181C176,180.448 174.564,180 172.796,180L125.204,180C123.436,180 122,180.448 122,181C122,181.552 123.436,182 125.204,182L172.796,182C174.564,182 176,181.552 176,181Z"/>
                        </g>
                        <g transform="matrix(2.2037,0,0,-7.5,637.109,1719)">
                            <path d="M176,181C176,180.448 174.475,180 172.597,180L125.403,180C123.525,180 122,180.448 122,181C122,181.552 123.525,182 125.403,182L172.597,182C174.475,182 176,181.552 176,181Z"/>
                        </g>
                        <g transform="matrix(1.94444,0,0,7.5,682.738,-1094)">
                            <path d="M176,181C176,180.448 174.272,180 172.143,180L125.857,180C123.728,180 122,180.448 122,181C122,181.552 123.728,182 125.857,182L172.143,182C174.272,182 176,181.552 176,181Z"/>
                        </g>
                        <g transform="matrix(2.3405,0,0,7.5,613.033,-1063.36)">
                            <path d="M176,181C176,180.448 174.564,180 172.796,180L125.204,180C123.436,180 122,180.448 122,181C122,181.552 123.436,182 125.204,182L172.796,182C174.564,182 176,181.552 176,181Z"/>
                        </g>
                        <g transform="matrix(2.2037,0,0,7.5,637.109,-1032.86)">
                            <path d="M176,181C176,180.448 174.475,180 172.597,180L125.403,180C123.525,180 122,180.448 122,181C122,181.552 123.525,182 125.403,182L172.597,182C174.475,182 176,181.552 176,181Z"/>
                        </g>
                    </g>
                    <path d="M1060.77,124.4C1060.77,105.414 1045.59,90 1026.6,90L897.4,90C877.849,104.121 862.243,118.679 862.774,124.4L862.774,477.6C926.263,477.005 1032.77,477.622 1060.77,477.636L1060.77,124.4Z" style="fill:none;stroke:black;stroke-width:12.5px;"/>
                </g>
                <g id="Perfil" transform="matrix(0.90604,0,0,1,4538.49,158)">
                    <ellipse cx="842.5" cy="189.5" rx="74.5" ry="66.5" style="fill:rgb(235,86,86);"/>
                    <clipPath id="_clip2">
                        <ellipse cx="842.5" cy="189.5" rx="74.5" ry="66.5"/>
                    </clipPath>
                    <g clip-path="url(#_clip2)">
                        <g transform="matrix(1.41889,-1.53209,0.325187,0.247226,-6777.93,8211.13)">
                            <path d="M5319,345.5C5319,334.738 5317.32,326 5315.25,326L5267.75,326C5265.68,326 5264,334.738 5264,345.5C5264,356.262 5265.68,365 5267.75,365L5315.25,365C5317.32,365 5319,356.262 5319,345.5Z" style="fill:white;"/>
                        </g>
                        <g transform="matrix(1.41889,1.53209,-0.325187,0.247226,-6553.23,-8002.96)">
                            <path d="M5319,345.5C5319,334.738 5317.32,326 5315.25,326L5267.75,326C5265.68,326 5264,334.738 5264,345.5C5264,356.262 5265.68,365 5267.75,365L5315.25,365C5317.32,365 5319,356.262 5319,345.5Z" style="fill:white;"/>
                        </g>
                    </g>
                    <ellipse cx="842.5" cy="189.5" rx="74.5" ry="66.5" style="fill:none;stroke:black;stroke-width:13.1px;"/>
                </g>
            </g>
        </g>
    </g>
</svg>
