<?xml version="1.0" encoding="UTF-8" standalone="no"?>
<!DOCTYPE svg PUBLIC "-//W3C//DTD SVG 1.1//EN" "http://www.w3.org/Graphics/SVG/1.1/DTD/svg11.dtd">
<svg width="100%" height="100%" viewBox="0 0 500 500" version="1.1" xmlns="http://www.w3.org/2000/svg" xmlns:xlink="http://www.w3.org/1999/xlink" xml:space="preserve" xmlns:serif="http://www.serif.com/" style="fill-rule:evenodd;clip-rule:evenodd;stroke-linecap:round;stroke-linejoin:round;stroke-miterlimit:1.5;">
    <g transform="matrix(1,0,0,1,-708,0)">
        <g id="Mesa-de-trabajo2" serif:id="Mesa de trabajo2" transform="matrix(1,0,0,1,-0.333333,0)">
            <rect x="708.333" y="0" width="500" height="500" style="fill:none;"/>
            <g id="Ticket" transform="matrix(1,0,0,1,4.33333,-19)">
                <path d="M1061,124.4C1061,105.414 1045.59,90 1026.6,90L897.4,90C877.849,104.121 862.469,118.679 863,124.4L863,227.6C859.49,232.005 897.633,243.295 920.4,259C941.487,246.409 950.673,228.824 964,241.908C988.196,265.663 985.18,266.3 1018.6,236C1037.59,236 1061,272.586 1061,253.6L1061,124.4Z" style="fill:rgb(61,235,151);"/>
                <clipPath id="_clip1">
                    <path d="M1061,124.4C1061,105.414 1045.59,90 1026.6,90L897.4,90C877.849,104.121 862.469,118.679 863,124.4L863,227.6C859.49,232.005 897.633,243.295 920.4,259C941.487,246.409 950.673,228.824 964,241.908C988.196,265.663 985.18,266.3 1018.6,236C1037.59,236 1061,272.586 1061,253.6L1061,124.4Z"/>
                </clipPath>
                <g clip-path="url(#_clip1)">
                    <g transform="matrix(1.94444,0,0,7.5,694.165,-1227)">
                        <path d="M176,181C176,180.448 174.272,180 172.143,180L125.857,180C123.728,180 122,180.448 122,181C122,181.552 123.728,182 125.857,182L172.143,182C174.272,182 176,181.552 176,181Z"/>
                    </g>
                    <g transform="matrix(2.3405,0,0,7.5,624.459,-1196.36)">
                        <path d="M176,181C176,180.448 174.564,180 172.796,180L125.204,180C123.436,180 122,180.448 122,181C122,181.552 123.436,182 125.204,182L172.796,182C174.564,182 176,181.552 176,181Z"/>
                    </g>
                    <g transform="matrix(2.2037,0,0,7.5,648.535,-1165.86)">
                        <path d="M176,181C176,180.448 174.475,180 172.597,180L125.403,180C123.525,180 122,180.448 122,181C122,181.552 123.525,182 125.403,182L172.597,182C174.475,182 176,181.552 176,181Z"/>
                    </g>
                </g>
                <path d="M1061,124.4C1061,105.414 1045.59,90 1026.6,90L897.4,90C877.849,104.121 862.469,118.679 863,124.4L863,227.6C859.49,232.005 897.633,243.295 920.4,259C941.487,246.409 950.673,228.824 964,241.908C988.196,265.663 985.18,266.3 1018.6,236C1037.59,236 1061,272.586 1061,253.6L1061,124.4Z" style="fill:none;stroke:black;stroke-width:15.14px;"/>
            </g>
            <g id="Ticket1" serif:id="Ticket" transform="matrix(-1,0,0,-1,1928.11,522.136)">
                <path d="M1061,124.4C1061,105.414 1045.59,90 1026.6,90L897.4,90C877.849,104.121 862.469,118.679 863,124.4L863,227.6C859.49,232.005 897.633,243.295 920.4,259C941.487,246.409 950.673,228.824 964,241.908C988.196,265.663 985.18,266.3 1018.6,236C1037.59,236 1061,272.586 1061,253.6L1061,124.4Z" style="fill:rgb(61,235,151);"/>
                <clipPath id="_clip2">
                    <path d="M1061,124.4C1061,105.414 1045.59,90 1026.6,90L897.4,90C877.849,104.121 862.469,118.679 863,124.4L863,227.6C859.49,232.005 897.633,243.295 920.4,259C941.487,246.409 950.673,228.824 964,241.908C988.196,265.663 985.18,266.3 1018.6,236C1037.59,236 1061,272.586 1061,253.6L1061,124.4Z"/>
                </clipPath>
                <g clip-path="url(#_clip2)">
                    <g transform="matrix(1.94444,0,0,-7.5,690.745,1557.14)">
                        <path d="M176,181C176,180.448 174.272,180 172.143,180L125.857,180C123.728,180 122,180.448 122,181C122,181.552 123.728,182 125.857,182L172.143,182C174.272,182 176,181.552 176,181Z"/>
                    </g>
                    <g transform="matrix(2.3405,0,0,-7.5,621.04,1526.5)">
                        <path d="M176,181C176,180.448 174.564,180 172.796,180L125.204,180C123.436,180 122,180.448 122,181C122,181.552 123.436,182 125.204,182L172.796,182C174.564,182 176,181.552 176,181Z"/>
                    </g>
                    <g transform="matrix(2.2037,0,0,-7.5,645.115,1496)">
                        <path d="M176,181C176,180.448 174.475,180 172.597,180L125.403,180C123.525,180 122,180.448 122,181C122,181.552 123.525,182 125.403,182L172.597,182C174.475,182 176,181.552 176,181Z"/>
                    </g>
                </g>
                <path d="M1061,124.4C1061,105.414 1045.59,90 1026.6,90L897.4,90C877.849,104.121 862.469,118.679 863,124.4L863,227.6C859.49,232.005 897.633,243.295 920.4,259C941.487,246.409 950.673,228.824 964,241.908C988.196,265.663 985.18,266.3 1018.6,236C1037.59,236 1061,272.586 1061,253.6L1061,124.4Z" style="fill:none;stroke:black;stroke-width:15.14px;"/>
            </g>
            <g id="Perfil" transform="matrix(0.90604,0,0,1,322.494,158)">
                <ellipse cx="842.5" cy="189.5" rx="74.5" ry="66.5" style="fill:rgb(235,86,86);"/>
                <clipPath id="_clip3">
                    <ellipse cx="842.5" cy="189.5" rx="74.5" ry="66.5"/>
                </clipPath>
                <g clip-path="url(#_clip3)">
                    <g transform="matrix(1.28765,0,0,1.32123,-224.965,-46.5764)">
                        <path d="M790,208C814.802,190.31 840.809,190.404 868,208C860.271,221.565 848.349,229.347 829.5,229C805.281,228.554 796.85,218.991 790,208Z" style="fill:white;"/>
                    </g>
                    <g transform="matrix(1.55651,0,0,1.61765,-445.055,-90.1876)">
                        <ellipse cx="826.5" cy="163" rx="19.5" ry="17" style="fill:white;"/>
                    </g>
                </g>
                <ellipse cx="842.5" cy="189.5" rx="74.5" ry="66.5" style="fill:none;stroke:black;stroke-width:15.87px;"/>
            </g>
            <g id="Perfil1" serif:id="Perfil" transform="matrix(0.90604,0,0,1,65.4944,-13)">
                <ellipse cx="842.5" cy="189.5" rx="74.5" ry="66.5" style="fill:rgb(86,128,235);"/>
                <clipPath id="_clip4">
                    <ellipse cx="842.5" cy="189.5" rx="74.5" ry="66.5"/>
                </clipPath>
                <g clip-path="url(#_clip4)">
                    <g transform="matrix(1.28765,0,0,1.32123,-223.862,-45.5652)">
                        <path d="M790,208C814.802,190.31 840.809,190.404 868,208C860.271,221.565 848.349,229.347 829.5,229C805.281,228.554 796.85,218.991 790,208Z" style="fill:white;"/>
                    </g>
                    <g transform="matrix(1.55651,0,0,1.61765,-443.952,-89.1765)">
                        <ellipse cx="826.5" cy="163" rx="19.5" ry="17" style="fill:white;"/>
                    </g>
                </g>
                <ellipse cx="842.5" cy="189.5" rx="74.5" ry="66.5" style="fill:none;stroke:black;stroke-width:15.87px;"/>
            </g>
        </g>
    </g>
</svg>
