<?xml version="1.0" encoding="UTF-8" standalone="no"?>
<!DOCTYPE svg PUBLIC "-//W3C//DTD SVG 1.1//EN" "http://www.w3.org/Graphics/SVG/1.1/DTD/svg11.dtd">
<svg width="100%" height="100%" viewBox="0 0 500 500" version="1.1" xmlns="http://www.w3.org/2000/svg" xmlns:xlink="http://www.w3.org/1999/xlink" xml:space="preserve" xmlns:serif="http://www.serif.com/" style="fill-rule:evenodd;clip-rule:evenodd;stroke-linecap:round;stroke-linejoin:round;stroke-miterlimit:1.5;">
    <g transform="matrix(1,0,0,1,-2832,0)">
        <g id="Mesa-de-trabajo5" serif:id="Mesa de trabajo5" transform="matrix(1,0,0,1,-0.333333,0)">
            <rect x="2832.33" y="0" width="500" height="500" style="fill:none;"/>
            <g id="Libro">
                <g transform="matrix(1.19917,0,0,1.00815,-602.812,-10.8538)">
                    <path d="M3199,99.467C3199,93.138 3194.68,88 3189.36,88L2967.64,88C2962.32,88 2958,93.138 2958,99.467L2958,444.533C2958,450.862 2962.32,456 2967.64,456L3189.36,456C3194.68,456 3199,450.862 3199,444.533L3199,99.467Z" style="fill:rgb(254,95,80);stroke:black;stroke-width:13.54px;"/>
                </g>
                <g transform="matrix(1.12782,0,0,0.918594,-366.742,32.5504)">
                    <path d="M3130,350.716C3130,343.936 3125.52,338.432 3119.99,338.432L3007.01,338.432C3001.48,338.432 2997,343.936 2997,350.716C2997,357.496 3001.48,363 3007.01,363L3119.99,363C3125.52,363 3130,357.496 3130,350.716Z" style="fill:rgb(255,74,57);"/>
                </g>
                <g transform="matrix(1.12782,0,0,0.918594,-366.742,71.5504)">
                    <path d="M3130,350.716C3130,343.936 3125.52,338.432 3119.99,338.432L3007.01,338.432C3001.48,338.432 2997,343.936 2997,350.716C2997,357.496 3001.48,363 3007.01,363L3119.99,363C3125.52,363 3130,357.496 3130,350.716Z" style="fill:rgb(255,74,57);"/>
                </g>
            </g>
            <g id="Cuchara">
                <g transform="matrix(1.29365,0.550138,-0.550648,1.29485,-819.288,-1788.63)">
                    <ellipse cx="3131.5" cy="172.5" rx="22.5" ry="27.5" style="fill:white;"/>
                </g>
                <g transform="matrix(0.575664,-1.3162,1.5162,0.663137,1035.85,4180.85)">
                    <rect x="3113" y="183" width="15" height="10" style="fill:white;"/>
                </g>
                <g transform="matrix(1.04657,0.484982,-0.561188,1.21102,16.6254,-1556.69)">
                    <path d="M3097,237.42C3097,228.358 3088.49,221 3078,221C3067.51,221 3059,228.358 3059,237.42L3059,300.58C3059,309.642 3067.51,317 3078,317C3088.49,317 3097,309.642 3097,300.58L3097,237.42Z" style="fill:rgb(96,125,138);"/>
                </g>
            </g>
            <g id="Tenedor">
                <g transform="matrix(1,0,0,1,1.33333,5)">
                    <path d="M3021,139L3039,173L3041,172L3025,138C3026.25,130.297 3031.14,127.963 3039,130L3057,164L3058,162L3044,131C3041.1,120.701 3056,117.575 3060,124L3073,156C3076.08,163.068 3078.39,169.817 3074,174L3065,182L3075,204L3059,211L3049,191C3043.58,191.929 3040.24,190.796 3034,189C3024.31,186.212 3016.19,166.755 3008,149C3005.27,143.08 3015.96,135.789 3021,139Z" style="fill:white;"/>
                </g>
                <g transform="matrix(1.01175,-0.471257,0.563561,1.20992,-172.026,1390.59)">
                    <path d="M3097,236.888C3097,228.119 3088.49,221 3078,221C3067.51,221 3059,228.119 3059,236.888L3059,301.112C3059,309.881 3067.51,317 3078,317C3088.49,317 3097,309.881 3097,301.112L3097,236.888Z" style="fill:rgb(206,215,219);"/>
                </g>
            </g>
        </g>
    </g>
</svg>
