<?xml version="1.0" encoding="UTF-8" standalone="no"?>
<!DOCTYPE svg PUBLIC "-//W3C//DTD SVG 1.1//EN" "http://www.w3.org/Graphics/SVG/1.1/DTD/svg11.dtd">
<svg width="100%" height="100%" viewBox="0 0 500 500" version="1.1" xmlns="http://www.w3.org/2000/svg" xmlns:xlink="http://www.w3.org/1999/xlink" xml:space="preserve" xmlns:serif="http://www.serif.com/" style="fill-rule:evenodd;clip-rule:evenodd;stroke-linecap:round;stroke-linejoin:round;stroke-miterlimit:1.5;">
    <rect id="Mesa-de-trabajo1" serif:id="Mesa de trabajo1" x="0" y="0" width="500" height="500" style="fill:none;"/>
    <g id="Mesa-de-trabajo11" serif:id="Mesa de trabajo1">
        <g id="TDC">
            <g transform="matrix(0.993939,0,0,1.0303,0.0484848,-22.697)">
                <path d="M338,252.68C338,235.195 323.285,221 305.161,221L40.839,221C22.715,221 8,235.195 8,252.68L8,387.32C8,404.805 22.715,419 40.839,419L305.161,419C323.285,419 338,404.805 338,387.32L338,252.68Z" style="fill:rgb(254,95,80);stroke:black;stroke-width:13.16px;"/>
            </g>
            <g transform="matrix(1.05195,0,0,1.16667,-4.83117,-39.8333)">
                <rect x="16" y="323" width="308" height="18" style="fill:rgb(252,205,92);"/>
            </g>
            <g transform="matrix(1.05195,0,0,1,-4.83117,-1)">
                <rect x="16" y="323" width="308" height="18"/>
            </g>
            <g transform="matrix(0.191558,0,0,1,-2.06494,31)">
                <path d="M324,332C324,327.033 302.948,323 277.017,323L62.983,323C37.052,323 16,327.033 16,332C16,336.967 37.052,341 62.983,341L277.017,341C302.948,341 324,336.967 324,332Z"/>
            </g>
            <g transform="matrix(0.87013,0,0,1,60.0779,31)">
                <path d="M324,332C324,327.033 319.365,323 313.657,323L26.343,323C20.635,323 16,327.033 16,332C16,336.967 20.635,341 26.343,341L313.657,341C319.365,341 324,336.967 324,332Z"/>
            </g>
        </g>
        <g id="Billete">
            <g transform="matrix(1.01842,0,0,0.933333,9.41579,13.2667)">
                <path d="M466,107.65C466,100.116 460.395,94 453.49,94L98.51,94C91.605,94 86,100.116 86,107.65L86,275.35C86,282.884 91.605,289 98.51,289L453.49,289C460.395,289 466,282.884 466,275.35L466,107.65Z" style="fill:rgb(61,235,151);stroke:black;stroke-width:15.5px;"/>
            </g>
            <g transform="matrix(0.948718,0,0,1,13.0513,-6)">
                <ellipse cx="293.5" cy="195.5" rx="58.5" ry="66.5" style="fill:rgb(61,235,151);stroke:black;stroke-width:15.53px;"/>
            </g>
            <path d="M132,101C127.037,121.402 115.548,131.399 97,135" style="fill:none;stroke:black;stroke-width:15.14px;"/>
            <g transform="matrix(-1,0,0,1,581,0)">
                <path d="M132,101C127.037,121.402 115.548,131.399 97,135" style="fill:none;stroke:black;stroke-width:15.14px;"/>
            </g>
            <g transform="matrix(-1,0,0,-1,581,384)">
                <path d="M132,101C127.037,121.402 115.548,131.399 97,135" style="fill:none;stroke:black;stroke-width:15.14px;"/>
            </g>
            <g transform="matrix(1,0,0,-1,0,384)">
                <path d="M132,101C127.037,121.402 115.548,131.399 97,135" style="fill:none;stroke:black;stroke-width:15.14px;"/>
            </g>
            <g transform="matrix(1.81481,0,0,7.5,-112.407,-1176)">
                <path d="M176,181C176,180.448 174.148,180 171.867,180L126.133,180C123.852,180 122,180.448 122,181C122,181.552 123.852,182 126.133,182L171.867,182C174.148,182 176,181.552 176,181Z"/>
            </g>
            <g transform="matrix(1.12963,0,0,7.5,-28.8148,-1148)">
                <path d="M176,181C176,180.448 173.025,180 169.361,180L128.639,180C124.975,180 122,180.448 122,181C122,181.552 124.975,182 128.639,182L169.361,182C173.025,182 176,181.552 176,181Z"/>
            </g>
            <g transform="matrix(1.81481,0,0,7.5,148.593,-1176)">
                <path d="M176,181C176,180.448 174.148,180 171.867,180L126.133,180C123.852,180 122,180.448 122,181C122,181.552 123.852,182 126.133,182L171.867,182C174.148,182 176,181.552 176,181Z"/>
            </g>
            <g transform="matrix(1.12963,0,0,7.5,269.185,-1148)">
                <path d="M176,181C176,180.448 173.025,180 169.361,180L128.639,180C124.975,180 122,180.448 122,181C122,181.552 124.975,182 128.639,182L169.361,182C173.025,182 176,181.552 176,181Z"/>
            </g>
            <g transform="matrix(2.12738,0,0,2.12738,-302.415,-220.253)">
                <text x="258px" y="217px" style="font-family:'AvantGardeLT-Bold', 'ITC Avant Garde Gothic LT';font-weight:700;font-size:67.01px;">$</text>
            </g>
        </g>
    </g>
</svg>
